<mxfile host="app.diagrams.net" modified="2024-02-26T17:03:16.931Z" agent="Mozilla/5.0 (Macintosh; Intel Mac OS X 10_15_7) AppleWebKit/537.36 (KHTML, like Gecko) Chrome/120.0.0.0 Safari/537.36" etag="azAFiK3maYy7IApox2ZU" version="23.0.2" type="github">
  <diagram id="C5RBs43oDa-KdzZeNtuy" name="Page-1">
    <mxGraphModel dx="1036" dy="695" grid="0" gridSize="10" guides="1" tooltips="1" connect="1" arrows="1" fold="1" page="1" pageScale="1" pageWidth="827" pageHeight="1169" math="0" shadow="0">
      <root>
        <mxCell id="WIyWlLk6GJQsqaUBKTNV-0" />
        <mxCell id="WIyWlLk6GJQsqaUBKTNV-1" parent="WIyWlLk6GJQsqaUBKTNV-0" />
        <mxCell id="AGH--NJTtsV9yRXGFYQr-5" value="" style="edgeStyle=orthogonalEdgeStyle;rounded=0;orthogonalLoop=1;jettySize=auto;html=1;" edge="1" parent="WIyWlLk6GJQsqaUBKTNV-1" source="AGH--NJTtsV9yRXGFYQr-0" target="AGH--NJTtsV9yRXGFYQr-1">
          <mxGeometry relative="1" as="geometry" />
        </mxCell>
        <mxCell id="AGH--NJTtsV9yRXGFYQr-0" value="page_alloc(num)" style="ellipse;whiteSpace=wrap;html=1;" vertex="1" parent="WIyWlLk6GJQsqaUBKTNV-1">
          <mxGeometry x="140" y="90" width="120" height="60" as="geometry" />
        </mxCell>
        <mxCell id="AGH--NJTtsV9yRXGFYQr-3" value="" style="edgeStyle=orthogonalEdgeStyle;rounded=0;orthogonalLoop=1;jettySize=auto;html=1;" edge="1" parent="WIyWlLk6GJQsqaUBKTNV-1" source="AGH--NJTtsV9yRXGFYQr-1" target="AGH--NJTtsV9yRXGFYQr-2">
          <mxGeometry relative="1" as="geometry" />
        </mxCell>
        <mxCell id="AGH--NJTtsV9yRXGFYQr-4" value="&amp;nbsp;否&amp;nbsp;" style="edgeLabel;html=1;align=center;verticalAlign=middle;resizable=0;points=[];" vertex="1" connectable="0" parent="AGH--NJTtsV9yRXGFYQr-3">
          <mxGeometry x="-0.2471" y="-1" relative="1" as="geometry">
            <mxPoint x="7" y="-1" as="offset" />
          </mxGeometry>
        </mxCell>
        <mxCell id="AGH--NJTtsV9yRXGFYQr-8" value="" style="edgeStyle=orthogonalEdgeStyle;rounded=0;orthogonalLoop=1;jettySize=auto;html=1;" edge="1" parent="WIyWlLk6GJQsqaUBKTNV-1" source="AGH--NJTtsV9yRXGFYQr-1" target="AGH--NJTtsV9yRXGFYQr-7">
          <mxGeometry relative="1" as="geometry" />
        </mxCell>
        <mxCell id="AGH--NJTtsV9yRXGFYQr-9" value="是" style="edgeLabel;html=1;align=center;verticalAlign=middle;resizable=0;points=[];" vertex="1" connectable="0" parent="AGH--NJTtsV9yRXGFYQr-8">
          <mxGeometry x="-0.3267" relative="1" as="geometry">
            <mxPoint y="5" as="offset" />
          </mxGeometry>
        </mxCell>
        <mxCell id="AGH--NJTtsV9yRXGFYQr-1" value="num为2的指数倍？" style="rhombus;whiteSpace=wrap;html=1;" vertex="1" parent="WIyWlLk6GJQsqaUBKTNV-1">
          <mxGeometry x="120" y="170" width="160" height="70" as="geometry" />
        </mxCell>
        <mxCell id="AGH--NJTtsV9yRXGFYQr-2" value="返回空值" style="rounded=0;whiteSpace=wrap;html=1;" vertex="1" parent="WIyWlLk6GJQsqaUBKTNV-1">
          <mxGeometry x="342.5" y="187.5" width="70" height="35" as="geometry" />
        </mxCell>
        <mxCell id="AGH--NJTtsV9yRXGFYQr-6" style="edgeStyle=orthogonalEdgeStyle;rounded=0;orthogonalLoop=1;jettySize=auto;html=1;exitX=0.5;exitY=1;exitDx=0;exitDy=0;" edge="1" parent="WIyWlLk6GJQsqaUBKTNV-1" source="AGH--NJTtsV9yRXGFYQr-1" target="AGH--NJTtsV9yRXGFYQr-1">
          <mxGeometry relative="1" as="geometry" />
        </mxCell>
        <mxCell id="AGH--NJTtsV9yRXGFYQr-11" value="" style="edgeStyle=orthogonalEdgeStyle;rounded=0;orthogonalLoop=1;jettySize=auto;html=1;" edge="1" parent="WIyWlLk6GJQsqaUBKTNV-1" source="AGH--NJTtsV9yRXGFYQr-7" target="AGH--NJTtsV9yRXGFYQr-10">
          <mxGeometry relative="1" as="geometry" />
        </mxCell>
        <mxCell id="AGH--NJTtsV9yRXGFYQr-7" value="寻找下一个空闲页在位图中的位置并记录起始位置&lt;br&gt;start = next = find_free_pages(start)" style="rounded=0;whiteSpace=wrap;html=1;" vertex="1" parent="WIyWlLk6GJQsqaUBKTNV-1">
          <mxGeometry x="55" y="280" width="290" height="60" as="geometry" />
        </mxCell>
        <mxCell id="AGH--NJTtsV9yRXGFYQr-13" value="" style="edgeStyle=orthogonalEdgeStyle;rounded=0;orthogonalLoop=1;jettySize=auto;html=1;" edge="1" parent="WIyWlLk6GJQsqaUBKTNV-1" source="AGH--NJTtsV9yRXGFYQr-10" target="AGH--NJTtsV9yRXGFYQr-12">
          <mxGeometry relative="1" as="geometry" />
        </mxCell>
        <mxCell id="AGH--NJTtsV9yRXGFYQr-10" value="寻找剩余空闲页&lt;br&gt;last = next&lt;br&gt;next = find_free_pages(next + 1)" style="rounded=0;whiteSpace=wrap;html=1;" vertex="1" parent="WIyWlLk6GJQsqaUBKTNV-1">
          <mxGeometry x="57.5" y="380" width="285" height="60" as="geometry" />
        </mxCell>
        <mxCell id="AGH--NJTtsV9yRXGFYQr-22" value="&amp;nbsp;否&amp;nbsp;" style="edgeStyle=orthogonalEdgeStyle;rounded=0;orthogonalLoop=1;jettySize=auto;html=1;" edge="1" parent="WIyWlLk6GJQsqaUBKTNV-1" source="AGH--NJTtsV9yRXGFYQr-12" target="AGH--NJTtsV9yRXGFYQr-20">
          <mxGeometry relative="1" as="geometry" />
        </mxCell>
        <mxCell id="AGH--NJTtsV9yRXGFYQr-26" value="" style="edgeStyle=orthogonalEdgeStyle;rounded=0;orthogonalLoop=1;jettySize=auto;html=1;" edge="1" parent="WIyWlLk6GJQsqaUBKTNV-1" source="AGH--NJTtsV9yRXGFYQr-12" target="AGH--NJTtsV9yRXGFYQr-23">
          <mxGeometry relative="1" as="geometry" />
        </mxCell>
        <mxCell id="AGH--NJTtsV9yRXGFYQr-27" value="是" style="edgeLabel;html=1;align=center;verticalAlign=middle;resizable=0;points=[];" vertex="1" connectable="0" parent="AGH--NJTtsV9yRXGFYQr-26">
          <mxGeometry x="-0.3843" y="3" relative="1" as="geometry">
            <mxPoint x="-3" y="2" as="offset" />
          </mxGeometry>
        </mxCell>
        <mxCell id="AGH--NJTtsV9yRXGFYQr-12" value="找到下一个空闲页？" style="rhombus;whiteSpace=wrap;html=1;" vertex="1" parent="WIyWlLk6GJQsqaUBKTNV-1">
          <mxGeometry x="120" y="480" width="160" height="70" as="geometry" />
        </mxCell>
        <mxCell id="AGH--NJTtsV9yRXGFYQr-20" value="返回空值" style="rounded=0;whiteSpace=wrap;html=1;" vertex="1" parent="WIyWlLk6GJQsqaUBKTNV-1">
          <mxGeometry x="350" y="497.5" width="70" height="35" as="geometry" />
        </mxCell>
        <mxCell id="AGH--NJTtsV9yRXGFYQr-24" style="edgeStyle=orthogonalEdgeStyle;rounded=0;orthogonalLoop=1;jettySize=auto;html=1;entryX=0;entryY=0.5;entryDx=0;entryDy=0;" edge="1" parent="WIyWlLk6GJQsqaUBKTNV-1" source="AGH--NJTtsV9yRXGFYQr-23" target="AGH--NJTtsV9yRXGFYQr-7">
          <mxGeometry relative="1" as="geometry">
            <mxPoint x="50" y="340" as="targetPoint" />
            <Array as="points">
              <mxPoint x="20" y="620" />
              <mxPoint x="20" y="310" />
            </Array>
          </mxGeometry>
        </mxCell>
        <mxCell id="AGH--NJTtsV9yRXGFYQr-25" value="&amp;nbsp;否&amp;nbsp;" style="edgeLabel;html=1;align=center;verticalAlign=middle;resizable=0;points=[];" vertex="1" connectable="0" parent="AGH--NJTtsV9yRXGFYQr-24">
          <mxGeometry x="-0.7365" y="-4" relative="1" as="geometry">
            <mxPoint x="12" y="4" as="offset" />
          </mxGeometry>
        </mxCell>
        <mxCell id="AGH--NJTtsV9yRXGFYQr-29" value="" style="edgeStyle=orthogonalEdgeStyle;rounded=0;orthogonalLoop=1;jettySize=auto;html=1;" edge="1" parent="WIyWlLk6GJQsqaUBKTNV-1" source="AGH--NJTtsV9yRXGFYQr-23" target="AGH--NJTtsV9yRXGFYQr-28">
          <mxGeometry relative="1" as="geometry" />
        </mxCell>
        <mxCell id="AGH--NJTtsV9yRXGFYQr-30" value="是" style="edgeLabel;html=1;align=center;verticalAlign=middle;resizable=0;points=[];" vertex="1" connectable="0" parent="AGH--NJTtsV9yRXGFYQr-29">
          <mxGeometry x="-0.3372" y="-3" relative="1" as="geometry">
            <mxPoint x="3" y="-2" as="offset" />
          </mxGeometry>
        </mxCell>
        <mxCell id="AGH--NJTtsV9yRXGFYQr-23" value="空闲页连续？&lt;br&gt;next = last + 1?" style="rhombus;whiteSpace=wrap;html=1;" vertex="1" parent="WIyWlLk6GJQsqaUBKTNV-1">
          <mxGeometry x="120" y="585" width="160" height="70" as="geometry" />
        </mxCell>
        <mxCell id="AGH--NJTtsV9yRXGFYQr-32" value="" style="edgeStyle=orthogonalEdgeStyle;rounded=0;orthogonalLoop=1;jettySize=auto;html=1;" edge="1" parent="WIyWlLk6GJQsqaUBKTNV-1" source="AGH--NJTtsV9yRXGFYQr-28" target="AGH--NJTtsV9yRXGFYQr-31">
          <mxGeometry relative="1" as="geometry" />
        </mxCell>
        <mxCell id="AGH--NJTtsV9yRXGFYQr-28" value="设置位图" style="whiteSpace=wrap;html=1;" vertex="1" parent="WIyWlLk6GJQsqaUBKTNV-1">
          <mxGeometry x="155" y="690" width="90" height="30" as="geometry" />
        </mxCell>
        <mxCell id="AGH--NJTtsV9yRXGFYQr-31" value="返回地址" style="whiteSpace=wrap;html=1;" vertex="1" parent="WIyWlLk6GJQsqaUBKTNV-1">
          <mxGeometry x="155" y="750" width="90" height="30" as="geometry" />
        </mxCell>
      </root>
    </mxGraphModel>
  </diagram>
</mxfile>
